<svg id="svg" xmlns="http://www.w3.org/2000/svg" xmlns:xlink="http://www.w3.org/1999/xlink" width="400" height="524.5569620253165" viewBox="0, 0, 400,524.5569620253165"><g id="svgg"><path id="path0" d="M109.339 16.962 C 107.300 18.405,104.580 18.742,94.684 18.777 C 85.504 18.810,81.572 19.243,78.611 20.549 C 74.147 22.518,70.209 22.741,66.284 21.249 C 62.625 19.857,57.377 21.402,52.528 25.299 L 48.681 28.391 42.066 23.862 C 32.659 17.422,21.799 16.232,16.925 21.106 C 14.244 23.787,14.048 37.387,16.619 42.357 C 18.800 46.576,18.656 48.664,15.696 55.696 C 11.360 65.997,13.074 71.231,20.631 70.767 C 25.431 70.472,30.903 74.509,29.245 77.124 C 27.721 79.530,28.294 82.066,30.909 84.490 L 33.464 86.857 30.842 87.515 C 27.735 88.295,26.116 91.714,23.332 103.370 C 21.068 112.849,21.210 113.519,26.684 119.241 C 29.849 122.549,30.378 123.544,28.970 123.544 C 23.534 123.544,17.163 136.705,21.348 139.291 C 22.916 140.261,21.605 144.566,18.150 149.794 C 14.444 155.399,14.416 158.369,18.033 161.986 L 20.876 164.829 18.539 167.078 C 15.294 170.201,15.366 176.066,18.698 180.026 C 22.257 184.256,22.981 190.293,20.725 196.932 C 19.068 201.806,19.033 202.709,20.368 206.217 C 21.699 209.713,21.659 210.920,19.974 218.216 C 16.751 232.169,16.621 235.661,19.192 239.138 C 21.256 241.930,21.309 242.325,19.834 243.954 C 18.086 245.886,17.706 251.785,19.180 254.114 C 19.806 255.103,19.476 256.365,18.152 258.048 C 15.641 261.240,15.678 264.773,18.260 268.400 C 19.676 270.388,20.115 272.097,19.668 273.879 C 18.542 278.365,20.157 283.150,24.440 288.016 C 27.894 291.939,28.462 293.174,27.871 295.473 C 25.615 304.247,25.926 305.961,31.258 314.128 C 36.240 321.757,36.317 321.992,34.827 324.979 C 33.671 327.295,33.540 328.889,34.282 331.578 C 35.129 334.642,34.789 336.191,31.780 343.004 C 29.256 348.719,28.354 352.139,28.499 355.443 C 28.610 357.949,28.148 361.332,27.473 362.961 C 26.798 364.589,26.516 367.154,26.847 368.660 C 27.361 371.000,27.059 371.497,24.776 372.070 C 16.620 374.117,15.442 380.258,21.668 388.275 C 25.804 393.601,26.039 394.227,24.971 397.057 C 24.026 399.561,24.132 400.647,25.567 403.147 C 27.123 405.860,27.151 406.438,25.822 408.466 C 21.305 415.361,18.162 429.237,20.651 431.302 C 21.880 432.323,21.992 433.074,21.147 434.652 C 20.548 435.771,20.255 438.343,20.496 440.368 C 20.737 442.394,20.305 445.565,19.536 447.416 C 17.974 451.178,18.537 454.164,21.398 457.297 C 23.291 459.370,23.289 459.435,21.282 461.252 C 19.186 463.148,18.754 466.800,20.202 470.380 C 20.703 471.618,20.478 473.733,19.625 475.820 C 17.503 481.006,17.898 483.943,21.122 486.954 C 23.548 489.221,23.865 490.064,23.084 492.170 C 20.779 498.388,24.736 504.587,31.186 504.863 C 33.249 504.951,36.220 505.545,37.787 506.182 C 39.355 506.820,41.485 507.342,42.520 507.342 C 43.555 507.342,46.621 507.854,49.332 508.480 C 53.528 509.448,55.516 509.301,62.671 507.491 C 70.396 505.538,71.326 505.492,74.095 506.924 C 77.880 508.881,82.366 508.009,84.868 504.829 C 86.660 502.551,86.762 502.536,87.927 504.400 C 88.589 505.461,89.959 506.329,90.971 506.329 C 91.983 506.329,93.882 507.468,95.190 508.861 C 98.873 512.782,102.998 512.245,110.028 506.930 C 114.495 503.553,116.347 502.691,117.645 503.386 C 118.589 503.891,120.938 504.304,122.866 504.304 C 124.797 504.304,129.834 505.948,134.081 507.965 C 139.928 510.741,142.459 511.450,144.565 510.899 C 146.092 510.500,149.683 510.237,152.544 510.316 C 157.184 510.444,158.148 510.081,161.473 506.945 C 165.187 503.441,165.214 503.434,169.310 504.879 C 174.219 506.611,179.485 506.732,184.310 505.223 C 190.163 503.392,195.698 503.509,198.364 505.520 C 201.475 507.866,205.099 507.845,206.778 505.471 C 208.333 503.272,212.525 502.379,222.278 502.170 C 230.792 501.987,232.330 501.302,233.911 496.983 L 235.123 493.671 236.920 499.012 C 239.344 506.213,241.654 508.639,245.541 508.068 C 247.222 507.822,249.890 508.071,251.471 508.622 C 253.802 509.434,254.865 509.239,257.097 507.589 C 259.495 505.816,260.095 505.735,261.764 506.954 C 266.449 510.381,272.185 508.287,276.014 501.753 C 278.635 497.281,280.506 496.616,280.506 500.156 C 280.506 505.203,289.400 507.567,292.762 503.414 L 294.576 501.174 296.232 503.700 C 298.315 506.879,302.734 508.358,309.873 508.265 C 312.937 508.225,317.164 508.274,319.266 508.373 C 321.382 508.473,324.214 507.817,325.606 506.905 C 327.485 505.674,328.615 505.520,330.070 506.299 C 333.114 507.928,336.374 507.533,338.815 505.241 L 341.051 503.140 345.389 505.353 C 354.295 509.897,368.065 508.900,374.966 503.212 C 382.496 497.005,387.085 482.686,383.283 477.258 C 381.881 475.256,381.923 475.025,383.791 474.433 C 388.679 472.881,388.842 466.113,384.141 459.949 C 381.433 456.400,380.591 449.873,382.190 444.835 C 383.185 441.702,381.221 437.842,377.879 436.363 C 375.107 435.136,374.977 434.860,376.291 432.984 C 377.078 431.861,377.722 430.167,377.722 429.220 C 377.722 428.273,379.089 426.130,380.759 424.460 C 384.317 420.902,384.570 418.471,381.754 414.891 C 380.412 413.185,380.086 412.062,380.803 411.619 C 381.439 411.225,381.791 408.344,381.646 404.712 C 381.433 399.371,381.786 397.918,384.117 394.542 C 388.046 388.849,386.888 383.105,380.921 378.693 C 378.028 376.555,377.944 376.299,379.393 374.087 C 380.334 372.650,380.655 370.887,380.223 369.525 C 378.912 365.394,379.387 357.819,381.111 355.357 C 383.427 352.051,383.243 350.972,379.668 346.901 C 376.723 343.546,376.640 343.226,378.149 341.071 C 380.737 337.376,378.841 326.076,375.634 326.076 C 375.169 326.076,374.802 323.358,374.818 320.036 C 374.834 316.713,374.607 313.607,374.314 313.132 C 374.020 312.657,374.437 310.363,375.240 308.033 C 376.516 304.328,376.511 303.259,375.200 299.494 C 373.072 293.387,373.278 291.354,376.709 284.557 C 380.356 277.332,380.442 275.761,377.434 271.297 L 375.120 267.864 377.155 264.150 C 378.764 261.212,378.982 259.845,378.196 257.612 C 377.364 255.246,377.573 254.417,379.488 252.503 C 382.437 249.554,382.380 246.242,379.304 241.708 L 376.835 238.071 379.051 237.399 C 389.231 234.311,390.186 220.995,380.704 214.353 C 379.380 213.427,378.993 212.618,379.672 212.198 C 381.720 210.932,380.975 200.040,378.637 197.068 L 376.514 194.369 379.273 192.198 C 382.029 190.031,382.032 190.014,381.291 180.837 C 380.184 167.124,380.284 164.978,382.254 160.000 C 384.702 153.814,383.211 148.372,377.407 142.315 C 373.212 137.937,373.169 137.819,374.945 135.625 C 375.940 134.396,376.686 131.973,376.604 130.240 C 376.522 128.507,377.211 125.356,378.136 123.239 C 379.751 119.542,379.732 119.236,377.654 115.540 L 375.491 111.690 378.188 108.993 C 381.125 106.056,381.065 104.758,377.686 98.054 C 376.126 94.960,376.007 93.819,376.979 91.245 C 377.964 88.634,377.802 87.340,375.933 82.917 L 373.721 77.680 378.253 71.651 C 383.483 64.693,383.470 64.774,380.652 56.629 C 378.818 51.331,378.682 49.871,379.681 46.245 C 380.321 43.924,380.993 40.285,381.175 38.159 C 381.356 36.033,382.021 33.777,382.651 33.146 C 384.760 31.038,384.042 24.510,381.519 22.860 C 373.092 17.346,349.144 16.849,334.851 21.892 C 331.089 23.219,330.640 23.175,328.624 21.281 C 324.052 16.986,314.879 19.955,297.740 31.280 C 289.083 37.000,288.964 36.994,288.036 30.805 C 286.825 22.731,283.687 22.017,271.097 26.951 C 265.613 29.100,265.255 29.130,265.809 27.386 C 266.180 26.217,265.490 24.454,263.970 22.687 L 261.538 19.860 239.294 22.223 L 217.050 24.586 204.238 22.312 C 188.690 19.551,176.578 19.695,173.280 22.680 C 171.195 24.567,171.049 24.546,163.304 21.275 C 153.924 17.314,144.374 16.267,135.982 18.281 C 130.794 19.525,129.877 19.458,124.166 17.410 C 116.686 14.727,112.668 14.606,109.339 16.962 M122.120 22.355 C 126.925 24.043,129.196 24.302,133.671 23.672 C 145.315 22.033,153.974 22.699,160.515 25.735 C 172.530 31.312,174.124 31.664,175.149 28.967 C 176.813 24.591,185.851 24.058,202.749 27.339 C 215.655 29.845,219.939 29.843,241.519 27.327 C 250.987 26.223,259.076 25.319,259.494 25.318 C 260.854 25.315,260.297 27.474,258.164 30.470 C 254.013 36.298,258.419 36.943,271.392 32.405 C 281.445 28.889,282.524 28.766,282.554 31.139 C 282.589 33.968,286.349 41.493,288.055 42.148 C 288.985 42.505,293.385 40.307,298.983 36.691 C 318.080 24.353,324.423 22.164,326.211 27.294 L 327.254 30.285 332.148 28.356 C 344.965 23.304,366.145 21.963,374.937 25.647 C 378.831 27.279,379.917 29.709,377.215 30.746 C 376.144 31.157,375.696 32.828,375.696 36.409 C 375.696 39.204,375.151 43.528,374.485 46.018 C 373.466 49.827,373.547 51.413,374.991 55.995 C 377.392 63.611,377.265 64.299,372.216 71.016 L 367.723 76.993 369.800 81.690 C 371.344 85.179,371.721 87.536,371.266 90.850 C 370.806 94.208,371.153 96.291,372.669 99.262 C 375.803 105.405,375.441 106.324,369.873 106.363 L 365.063 106.396 367.342 108.297 C 368.595 109.343,369.620 110.755,369.620 111.435 C 369.620 112.116,370.587 114.237,371.769 116.150 C 373.860 119.533,373.871 119.733,372.150 123.548 C 371.105 125.865,370.638 128.491,371.009 129.967 C 371.532 132.051,371.050 132.810,368.096 134.552 C 363.535 137.243,363.634 138.002,369.023 141.709 C 377.534 147.565,379.974 155.054,375.721 162.262 C 373.559 165.927,373.549 166.124,375.186 172.872 C 377.962 184.309,377.162 188.248,371.655 190.276 C 365.688 192.472,365.300 194.747,370.444 197.372 C 374.827 199.608,375.696 201.042,375.696 206.036 C 375.696 209.849,374.164 210.739,364.246 212.685 C 355.635 214.374,356.400 217.116,365.580 217.464 C 377.634 217.921,378.624 218.309,380.820 223.432 C 383.485 229.649,383.573 229.447,376.709 232.911 C 369.698 236.450,369.371 237.609,373.803 243.205 L 376.974 247.208 374.135 250.171 C 371.488 252.933,371.375 253.390,372.458 256.918 C 373.532 260.418,373.418 260.913,370.942 263.497 C 368.043 266.523,368.099 266.872,372.629 273.931 L 374.583 276.976 371.008 284.859 L 367.433 292.743 369.209 298.391 C 370.723 303.202,370.792 304.508,369.678 307.209 C 368.958 308.953,368.442 311.063,368.530 311.899 C 368.619 312.734,368.932 316.835,369.226 321.013 C 369.631 326.780,370.216 328.973,371.654 330.127 C 374.970 332.786,375.150 336.505,372.137 340.086 L 369.451 343.278 373.080 347.518 C 378.097 353.379,377.200 354.164,365.063 354.530 L 361.013 354.652 365.448 355.524 C 373.993 357.202,378.070 363.055,371.730 364.541 L 369.282 365.115 371.983 366.885 C 377.947 370.793,374.131 374.684,364.334 374.684 C 357.054 374.684,360.073 378.008,369.255 380.103 C 380.999 382.781,383.543 386.720,378.204 393.957 C 375.920 397.052,375.718 398.042,376.306 403.244 C 376.941 408.858,376.870 409.103,374.305 410.078 C 370.887 411.377,370.956 412.274,374.684 415.030 C 378.633 417.950,378.598 420.657,374.589 422.318 C 371.892 423.435,371.535 424.006,372.021 426.432 C 372.474 428.700,371.986 429.753,369.513 431.834 C 365.468 435.238,366.276 437.873,371.945 439.762 C 376.774 441.371,377.803 443.695,375.039 446.749 C 373.249 448.727,373.252 448.835,375.120 450.201 C 376.790 451.422,376.884 451.974,375.820 454.310 C 374.734 456.694,374.875 457.313,377.038 459.643 C 388.747 472.254,382.674 472.686,367.645 460.311 C 360.968 454.813,360.992 454.798,363.503 462.884 C 366.346 472.040,369.638 476.463,374.910 478.213 C 381.297 480.332,381.328 485.502,375.012 495.215 C 369.313 503.979,354.810 505.866,345.160 499.100 C 341.488 496.525,339.561 496.729,336.756 499.991 C 334.470 502.649,334.287 502.691,332.421 501.003 C 329.915 498.735,328.297 498.789,324.557 501.266 C 321.033 503.600,317.234 503.817,314.618 501.834 C 313.057 500.650,312.372 500.654,310.061 501.860 C 305.881 504.041,303.822 503.600,300.188 499.747 C 296.400 495.731,293.578 495.282,290.633 498.228 C 287.856 501.004,285.570 500.825,285.570 497.830 C 285.570 496.497,284.921 495.158,284.129 494.854 C 283.337 494.550,282.539 493.284,282.357 492.040 C 281.631 487.088,276.018 490.648,270.873 499.324 C 268.014 504.145,265.640 504.312,263.765 499.825 C 261.888 495.332,261.040 495.307,257.732 499.643 C 255.233 502.920,254.832 503.072,249.342 502.829 L 243.576 502.573 242.041 497.537 C 240.612 492.850,233.709 483.038,231.839 483.038 C 231.383 483.038,230.716 485.203,230.357 487.848 C 229.208 496.300,229.553 495.976,220.971 496.660 C 206.285 497.831,204.364 498.242,203.817 500.333 C 203.150 502.883,202.680 502.799,199.262 499.525 C 196.886 497.248,196.066 496.971,194.535 497.927 C 193.073 498.840,192.338 498.739,191.046 497.447 C 189.538 495.940,189.227 495.979,187.109 497.950 C 183.580 501.234,178.218 501.775,170.092 499.667 L 163.021 497.833 159.002 501.758 C 155.230 505.441,154.824 505.598,152.412 504.307 C 150.193 503.120,149.353 503.164,146.281 504.629 C 142.769 506.304,142.638 506.283,136.424 503.100 C 132.960 501.326,127.848 499.535,125.063 499.121 C 122.278 498.706,118.762 498.058,117.249 497.680 C 114.986 497.114,113.398 497.820,108.288 501.661 C 100.940 507.184,100.319 507.272,97.320 503.216 C 96.042 501.488,94.414 500.334,93.661 500.623 C 92.915 500.909,91.576 500.032,90.686 498.673 C 88.454 495.267,86.300 495.572,81.841 499.927 C 78.230 503.453,77.926 503.561,76.149 501.952 C 73.809 499.835,71.325 499.819,63.437 501.873 C 56.191 503.760,42.494 503.085,38.723 500.654 C 37.463 499.843,34.814 499.288,32.837 499.421 C 29.190 499.666,26.924 497.910,27.799 495.515 C 29.986 489.532,29.644 486.756,26.394 484.104 L 23.135 481.444 24.891 477.055 C 26.334 473.450,26.438 472.087,25.476 469.426 C 24.831 467.643,24.304 465.888,24.304 465.524 C 24.304 464.287,29.849 462.069,38.481 459.852 C 53.966 455.875,53.966 455.257,38.481 454.684 C 23.318 454.122,21.753 453.158,25.850 446.905 C 27.206 444.836,27.325 443.806,26.435 441.852 C 24.883 438.447,24.969 438.037,27.974 434.465 C 29.436 432.728,30.461 431.191,30.253 431.048 C 30.044 430.906,28.620 430.252,27.089 429.594 C 24.007 428.270,23.568 425.868,25.855 422.844 C 26.673 421.763,27.342 420.036,27.342 419.007 C 27.342 416.308,30.741 410.041,33.940 406.842 L 36.692 404.090 34.254 403.163 C 31.067 401.952,28.907 399.391,30.331 398.511 C 33.285 396.685,29.538 387.502,23.966 382.914 C 21.212 380.646,21.990 379.216,27.342 376.709 L 32.405 374.337 32.405 369.274 C 32.405 366.066,32.995 363.558,34.016 362.430 C 35.377 360.926,35.435 360.122,34.389 357.229 C 33.264 354.117,33.480 353.001,36.772 344.927 C 39.789 337.526,40.297 335.239,39.818 331.198 C 39.453 328.115,39.658 326.094,40.381 325.647 C 42.653 324.243,41.416 320.102,36.456 312.504 C 30.817 303.865,30.787 303.743,32.895 297.767 C 34.615 292.893,34.155 291.629,27.745 283.625 C 24.419 279.471,24.209 278.800,24.830 274.289 C 25.381 270.283,25.124 268.903,23.369 266.439 L 21.241 263.450 23.414 259.766 C 25.219 256.707,25.392 255.656,24.439 253.563 C 22.773 249.907,23.021 247.647,25.316 245.570 C 27.944 243.192,27.877 242.400,24.649 237.742 L 21.956 233.857 23.714 227.055 C 24.681 223.314,25.591 219.114,25.736 217.722 C 25.882 216.329,26.337 214.155,26.747 212.889 C 27.203 211.480,26.839 208.879,25.808 206.178 C 24.229 202.045,24.233 201.556,25.863 198.402 C 28.558 193.192,27.424 181.440,23.886 177.902 C 20.355 174.371,20.586 172.083,24.869 168.186 C 28.997 164.429,28.947 163.322,24.525 160.506 C 20.552 157.977,20.246 154.223,23.745 150.935 C 25.108 149.654,26.511 147.299,26.862 145.702 C 27.213 144.104,28.159 142.428,28.964 141.978 C 30.157 141.310,29.954 140.712,27.872 138.757 C 22.862 134.050,26.273 128.089,33.332 129.218 C 37.935 129.954,42.732 127.652,44.449 123.883 C 45.443 121.701,45.300 121.519,42.576 121.519 C 30.476 121.519,25.494 113.567,29.476 100.613 C 32.358 91.240,32.171 91.357,36.402 96.269 C 39.043 99.335,40.641 100.418,41.843 99.957 C 44.438 98.961,43.944 94.672,41.013 92.751 C 37.837 90.671,37.843 89.658,41.055 85.841 C 44.408 81.857,43.800 80.506,38.652 80.506 C 36.343 80.506,34.449 80.165,34.442 79.747 C 34.436 79.329,34.430 78.543,34.430 78.001 C 34.430 77.458,35.812 76.299,37.501 75.426 C 41.121 73.554,40.714 72.304,36.191 71.398 C 34.228 71.005,31.625 69.267,29.705 67.068 C 26.748 63.681,26.291 63.490,23.834 64.609 C 17.623 67.439,17.072 66.121,20.740 57.215 C 23.575 50.334,23.999 43.854,21.804 40.953 C 19.632 38.080,19.671 24.744,21.855 23.906 C 27.226 21.845,35.842 24.847,43.236 31.355 C 48.428 35.925,49.120 35.837,55.952 29.727 C 60.025 26.086,62.681 25.610,68.764 27.432 C 71.835 28.353,73.451 28.180,78.502 26.392 C 86.242 23.651,94.464 22.819,100.253 24.189 C 104.312 25.149,105.308 25.002,109.367 22.845 C 115.065 19.817,114.915 19.823,122.120 22.355 M112.796 30.559 C 109.269 32.652,104.518 33.033,96.072 31.899 C 91.269 31.255,88.977 31.578,81.515 33.954 C 73.312 36.566,72.290 36.679,67.636 35.487 C 62.667 34.213,62.579 34.232,59.408 37.301 C 52.039 44.433,47.085 44.598,38.481 37.998 C 28.082 30.020,26.265 30.196,29.873 38.831 C 31.597 42.956,31.862 50.278,30.425 54.057 C 29.622 56.169,29.790 56.707,31.412 57.221 C 32.486 57.562,34.319 59.181,35.486 60.819 C 36.652 62.457,38.373 63.799,39.309 63.801 C 42.374 63.808,47.307 67.592,48.423 70.791 C 49.023 72.514,49.285 73.924,49.004 73.924 C 48.723 73.924,49.202 74.937,50.069 76.175 C 51.870 78.745,52.124 83.290,50.624 86.093 C 49.920 87.408,49.978 89.410,50.810 92.521 C 53.354 102.034,48.417 109.053,39.859 108.088 C 34.839 107.523,34.462 108.092,37.787 111.216 C 39.285 112.623,41.428 113.418,43.726 113.418 C 55.470 113.418,56.267 127.475,44.930 134.664 C 42.279 136.346,39.561 137.722,38.890 137.722 C 38.168 137.722,37.671 139.191,37.671 141.327 C 37.671 143.311,37.008 145.703,36.199 146.644 C 32.148 151.351,31.227 155.137,33.536 157.594 C 36.431 160.676,36.595 167.028,33.876 170.827 C 31.910 173.574,31.901 173.790,33.608 177.154 C 35.048 179.991,35.286 182.432,34.891 190.318 C 34.390 200.304,34.356 202.877,34.634 209.367 C 34.857 214.543,33.876 221.306,32.055 227.159 C 30.583 231.887,30.612 232.152,32.989 235.654 C 35.660 239.590,36.125 243.939,34.244 247.408 C 32.618 250.407,32.108 258.545,32.762 271.029 C 33.036 276.255,33.601 277.869,36.299 281.143 C 41.574 287.543,43.093 292.694,41.305 298.125 L 39.823 302.628 44.239 309.491 C 49.763 318.076,50.703 321.389,49.009 326.293 C 48.295 328.361,47.958 331.580,48.261 333.445 C 48.661 335.913,47.865 339.122,45.335 345.237 C 42.247 352.699,41.975 354.074,42.903 357.549 C 43.745 360.703,43.614 362.160,42.227 365.069 C 41.281 367.053,40.506 370.519,40.506 372.770 C 40.506 375.896,39.841 377.530,37.695 379.676 L 34.884 382.487 37.189 386.846 C 38.456 389.243,39.494 392.500,39.494 394.083 C 39.494 395.667,39.973 396.962,40.558 396.962 C 45.132 396.962,44.684 406.976,39.869 412.380 C 38.020 414.454,36.230 417.416,35.890 418.962 C 35.551 420.507,35.111 422.308,34.912 422.964 C 34.713 423.619,35.152 424.655,35.888 425.265 C 38.259 427.233,38.647 432.463,36.713 436.379 C 35.729 438.371,35.070 441.481,35.248 443.291 L 35.571 446.582 44.937 446.582 C 55.168 446.582,58.007 447.889,59.343 453.212 C 60.982 459.744,56.768 463.344,43.409 466.826 L 34.666 469.105 34.149 473.692 C 33.766 477.092,34.128 479.091,35.547 481.418 C 36.599 483.144,37.462 486.017,37.465 487.801 C 37.471 493.686,51.730 497.048,62.774 493.768 C 65.767 492.879,70.024 492.152,72.235 492.152 C 74.500 492.152,78.584 491.012,81.595 489.539 L 86.935 486.926 91.316 489.036 C 93.725 490.196,97.192 492.106,99.021 493.280 L 102.345 495.415 106.615 492.538 C 112.997 488.239,126.775 489.136,137.451 494.546 C 141.821 496.761,143.095 497.002,145.682 496.100 C 147.364 495.513,149.783 495.183,151.055 495.365 C 152.412 495.559,154.373 494.763,155.795 493.440 C 159.282 490.198,164.361 489.535,170.612 491.506 C 177.705 493.742,179.434 493.609,182.880 490.567 C 185.851 487.945,198.294 487.605,200.838 490.077 C 201.298 490.524,203.349 490.502,205.395 490.026 C 207.440 489.551,211.643 489.151,214.734 489.138 C 220.871 489.112,222.785 487.959,222.785 484.288 C 222.785 476.988,230.283 472.603,236.551 476.238 C 240.181 478.345,248.155 488.116,248.776 491.220 C 249.493 494.807,250.263 494.893,253.645 491.759 C 256.642 488.980,260.336 488.028,264.152 489.048 C 266.314 489.626,267.454 489.131,270.277 486.390 C 277.022 479.840,287.513 479.844,289.158 486.398 C 289.713 488.610,290.161 488.765,294.729 488.326 C 299.314 487.885,299.958 488.112,303.094 491.266 C 306.300 494.490,306.651 494.606,309.308 493.308 C 311.700 492.140,312.687 492.154,315.857 493.400 C 319.160 494.697,319.864 494.685,321.958 493.294 C 324.168 491.827,329.269 490.765,340.253 489.487 C 344.107 489.038,345.435 489.396,348.861 491.805 C 355.217 496.274,363.687 495.992,367.706 491.177 C 371.355 486.806,371.350 485.985,367.658 483.884 C 363.413 481.469,358.946 474.825,356.377 467.105 C 352.292 454.831,354.033 448.777,361.789 448.281 C 366.619 447.972,367.188 447.212,364.103 445.191 C 358.368 441.433,356.983 432.766,361.350 427.956 C 364.370 424.629,365.104 420.364,363.985 412.658 C 363.516 409.429,363.823 408.154,365.496 406.371 C 366.944 404.828,367.596 402.788,367.599 399.789 C 367.601 397.251,368.434 394.080,369.601 392.165 L 371.599 388.888 368.838 388.266 C 360.514 386.394,358.389 385.537,355.593 382.925 C 349.811 377.524,350.568 369.695,357.136 366.950 C 360.329 365.617,361.735 363.544,359.448 363.544 C 357.031 363.544,353.418 358.520,353.418 355.159 C 353.418 351.528,356.771 347.342,359.679 347.342 C 360.754 347.342,361.428 346.034,361.806 343.213 C 362.111 340.941,363.073 338.296,363.944 337.333 C 365.383 335.743,365.375 335.429,363.853 333.907 C 362.753 332.807,361.919 329.521,361.426 324.344 C 361.013 320.005,360.371 315.280,359.999 313.842 C 359.604 312.314,359.943 309.746,360.816 307.656 C 362.114 304.550,362.123 303.369,360.885 298.624 C 359.285 292.494,359.729 289.154,363.022 282.532 L 365.287 277.975 362.839 273.418 C 360.391 268.862,360.285 263.486,362.589 260.696 C 363.078 260.104,363.435 257.486,363.383 254.878 C 363.330 252.271,363.830 249.484,364.492 248.686 C 365.435 247.549,365.338 246.540,364.044 244.038 C 360.709 237.588,362.855 230.251,368.813 227.738 L 372.152 226.329 364.511 225.707 C 347.420 224.317,344.112 209.084,360.092 205.357 L 365.247 204.154 362.405 201.763 C 356.521 196.812,357.696 187.787,364.641 184.588 C 369.146 182.513,369.146 182.513,366.970 172.947 C 365.365 165.890,365.378 165.639,367.633 160.198 C 370.298 153.768,370.041 153.019,363.448 147.988 C 355.876 142.210,354.584 136.117,359.759 130.596 C 365.102 124.898,364.964 118.043,359.386 112.056 C 356.609 109.075,356.850 103.212,359.867 100.378 C 363.138 97.305,364.259 88.370,361.936 83.878 C 359.194 78.575,359.841 74.328,364.398 67.725 L 368.491 61.792 366.930 57.209 C 365.877 54.120,365.584 51.063,366.030 47.832 C 366.395 45.195,366.782 40.532,366.891 37.468 L 367.089 31.899 361.640 31.588 C 354.382 31.174,343.688 32.912,335.163 35.891 C 328.038 38.380,324.869 38.328,321.798 35.673 C 319.487 33.675,316.890 34.772,304.097 43.148 C 289.787 52.517,283.685 52.586,278.543 43.439 C 276.863 40.449,275.802 39.531,274.580 40.007 C 261.947 44.935,249.114 43.342,249.114 36.845 C 249.114 34.651,247.898 34.571,236.445 36.007 C 221.250 37.912,214.900 37.808,202.025 35.443 C 187.726 32.816,182.682 32.796,181.309 35.362 C 178.559 40.502,170.704 39.900,158.481 33.613 C 153.002 30.795,146.666 30.335,133.671 31.812 C 128.399 32.411,125.979 32.175,121.519 30.624 C 116.092 28.737,115.869 28.735,112.796 30.559 " stroke="current" fill="current" fill-rule="evenodd"></path></g></svg>
